<svg width="64" height="64" viewBox="0 0 64 64" fill="none" xmlns="http://www.w3.org/2000/svg">
<rect width="64" height="64" fill="white"/>
<path d="M30.41 33.59H16C16.0979 34.6348 16.3023 35.6668 16.61 36.67H25.15L19.59 42.23C20.2399 43.0296 20.9704 43.7601 21.77 44.41L27.33 38.85V47.39C28.3332 47.6977 29.3652 47.9021 30.41 48V33.59ZM47.91 33.59H33.5V48C34.5448 47.9021 35.5768 47.6977 36.58 47.39V36.67H44C43.3941 38.2352 42.4908 39.6682 41.34 40.89V45C44.1654 42.944 46.2437 40.0232 47.26 36.68V36.62C47.32 36.43 47.37 36.23 47.42 36.03C47.4234 35.9767 47.4234 35.9233 47.42 35.87C47.48 35.65 47.52 35.44 47.57 35.23V35.05C47.57 34.87 47.64 34.69 47.67 34.5C47.6657 34.4468 47.6657 34.3932 47.67 34.34C47.67 34.17 47.72 34 47.74 33.83C47.7894 33.7451 47.8463 33.6647 47.91 33.59ZM32 16C27.9899 15.9844 24.1201 17.4752 21.157 20.1772C18.1938 22.8793 16.3534 26.5955 16 30.59H26.9L28.62 27.52H19.83C20.0983 26.7812 20.433 26.0683 20.83 25.39H29.83L31.55 22.31H23.41C25.7691 20.2269 28.8079 19.0773 31.955 19.0773C35.1021 19.0773 38.1409 20.2269 40.5 22.31H32.38L34.1 25.39H43.1C43.4967 26.0685 43.8314 26.7814 44.1 27.52H35.3L37 30.59H47.9C47.5481 26.6127 45.7219 22.9106 42.7799 20.211C39.8379 17.5114 35.9929 16.0094 32 16Z" fill="#1E8AFF"/>
</svg>
