<svg width="240" height="64" viewBox="0 0 240 64" fill="none" xmlns="http://www.w3.org/2000/svg">
<rect width="240" height="64" fill="white"/>
<path d="M73.8194 25.8564C72.723 24.965 71.3416 24.4998 69.9294 24.5464H64.3594V39.6064H67.8694V34.5164H70.8694C71.1887 34.5178 71.5073 34.4843 71.8194 34.4164H71.9994C73.0704 34.0837 73.9838 33.3729 74.5694 32.4164C75.1349 31.5937 75.4286 30.6145 75.4094 29.6164C75.4547 28.9092 75.3346 28.2012 75.0586 27.5485C74.7826 26.8958 74.3583 26.3165 73.8194 25.8564ZM71.8194 29.5364C71.8388 29.7746 71.8029 30.0141 71.7144 30.2362C71.626 30.4582 71.4873 30.6568 71.3094 30.8164C70.8346 31.1523 70.2602 31.3179 69.6794 31.2864H67.8594V27.7664H69.7194C70.2995 27.7266 70.8746 27.8969 71.3394 28.2464C71.5211 28.406 71.6635 28.6055 71.7555 28.8293C71.8474 29.0531 71.8864 29.2951 71.8694 29.5364H71.8194ZM199.399 25.8564C198.299 24.9651 196.915 24.5001 195.499 24.5464H189.929V39.6064H193.439V34.5164H196.439C196.775 34.5215 197.111 34.488 197.439 34.4164H197.629C198.696 34.0808 199.606 33.3704 200.189 32.4164C200.755 31.5937 201.049 30.6145 201.029 29.6164C201.068 28.9061 200.941 28.1965 200.658 27.5439C200.375 26.8913 199.944 26.3135 199.399 25.8564ZM197.399 29.5364C197.419 29.7756 197.382 30.0161 197.292 30.2384C197.202 30.4608 197.06 30.6588 196.879 30.8164C196.409 31.1538 195.837 31.3196 195.259 31.2864H193.399V27.7664H195.259C195.837 27.7254 196.409 27.896 196.869 28.2464C197.053 28.4045 197.197 28.6038 197.289 28.8279C197.381 29.0521 197.419 29.2948 197.399 29.5364ZM93.2394 26.2364C91.7775 24.8029 89.8118 24 87.7644 24C85.717 24 83.7512 24.8029 82.2894 26.2364C80.8872 27.7504 80.1083 29.7379 80.1083 31.8014C80.1083 33.8649 80.8872 35.8524 82.2894 37.3664C83.7646 38.7936 85.7368 39.5915 87.7894 39.5915C89.842 39.5915 91.8142 38.7936 93.2894 37.3664C94.6872 35.8502 95.4632 33.8636 95.4632 31.8014C95.4632 29.7392 94.6872 27.7525 93.2894 26.2364H93.2394ZM90.6994 35.0464C90.3148 35.4316 89.8581 35.7372 89.3554 35.9457C88.8526 36.1542 88.3137 36.2615 87.7694 36.2615C87.2251 36.2615 86.6861 36.1542 86.1834 35.9457C85.6806 35.7372 85.2239 35.4316 84.8394 35.0464C84.0977 34.1391 83.6926 33.0032 83.6926 31.8314C83.6926 30.6595 84.0977 29.5237 84.8394 28.6164C85.218 28.2288 85.6696 27.9199 86.1681 27.7075C86.6666 27.4951 87.2021 27.3834 87.744 27.3787C88.2858 27.3741 88.8232 27.4766 89.3253 27.6804C89.8273 27.8843 90.2841 28.1854 90.6694 28.5664V28.6164C91.4164 29.5213 91.825 30.658 91.825 31.8314C91.825 33.0048 91.4164 34.1415 90.6694 35.0464H90.6994ZM182.939 26.2364C181.478 24.806 179.514 24.0049 177.469 24.0049C175.424 24.0049 173.461 24.806 171.999 26.2364C170.597 27.7504 169.818 29.7379 169.818 31.8014C169.818 33.8649 170.597 35.8524 171.999 37.3664C173.473 38.7959 175.446 39.5954 177.499 39.5954C179.553 39.5954 181.525 38.7959 182.999 37.3664C184.402 35.8524 185.18 33.8649 185.18 31.8014C185.18 29.7379 184.402 27.7504 182.999 26.2364H182.939ZM180.399 35.0064C180.016 35.3913 179.56 35.6967 179.058 35.9051C178.556 36.1134 178.018 36.2207 177.474 36.2207C176.931 36.2207 176.393 36.1134 175.891 35.9051C175.389 35.6967 174.933 35.3913 174.549 35.0064C173.808 34.0991 173.403 32.9632 173.403 31.7914C173.403 30.6195 173.808 29.4837 174.549 28.5764C174.928 28.1888 175.38 27.8799 175.878 27.6675C176.377 27.4551 176.912 27.3434 177.454 27.3387C177.996 27.3341 178.533 27.4366 179.035 27.6404C179.537 27.8443 179.994 28.1454 180.379 28.5264L180.429 28.5764C181.186 29.477 181.6 30.6154 181.6 31.7914C181.6 32.9674 181.186 34.1057 180.429 35.0064H180.399ZM214.919 24.5464H205.669V39.6064H209.199V27.7964H213.849L214.019 27.5364L215.409 25.4464L215.999 24.5464H214.919ZM166.109 24.5464H153.739V27.7964H158.449V39.6064H161.999V27.7964H166.709V24.5464H166.109ZM110.999 35.6764L110.669 35.5164L110.379 35.7464C109.687 36.2668 108.834 36.5286 107.969 36.4864C107.378 36.5135 106.788 36.4162 106.237 36.2009C105.686 35.9856 105.186 35.657 104.769 35.2364C104.352 34.7936 104.029 34.2715 103.817 33.7012C103.606 33.1309 103.512 32.5239 103.539 31.9164C103.511 31.3178 103.606 30.7198 103.817 30.1591C104.029 29.5985 104.353 29.0871 104.769 28.6564C105.183 28.2414 105.678 27.9169 106.224 27.7035C106.77 27.49 107.354 27.3922 107.939 27.4164C108.458 27.4231 108.969 27.5389 109.439 27.7564C109.955 27.9904 110.415 28.3312 110.789 28.7564L111.139 29.1764L111.569 28.8464L113.179 27.6364L113.669 27.2664L113.279 26.8064C112.639 25.9977 111.822 25.3458 110.892 24.9005C109.961 24.4551 108.941 24.228 107.909 24.2364C106.864 24.2289 105.827 24.4154 104.849 24.7864C103.911 25.1396 103.056 25.6845 102.339 26.3864C101.606 27.085 101.033 27.9346 100.659 28.8764C100.276 29.8297 100.082 30.8488 100.089 31.8764C100.086 32.9018 100.273 33.9189 100.639 34.8764C101.003 35.807 101.546 36.6566 102.239 37.3764C102.948 38.0859 103.8 38.635 104.739 38.9864C105.753 39.3506 106.823 39.5302 107.899 39.5164C108.779 39.5581 109.659 39.4259 110.488 39.1274C111.316 38.8288 112.078 38.3697 112.729 37.7764C112.853 37.6603 112.97 37.5367 113.079 37.4064L113.569 36.8364L112.889 36.5064L110.999 35.6764ZM131.339 28.8864C130.956 27.9548 130.386 27.1119 129.663 26.4101C128.941 25.7082 128.082 25.1624 127.139 24.8064C126.18 24.4451 125.164 24.2589 124.139 24.2564C123.107 24.2484 122.086 24.4768 121.155 24.9239C120.225 25.3711 119.408 26.0253 118.769 26.8364L118.379 27.3064L118.869 27.6664L120.469 28.8764L120.909 29.2064L121.259 28.7964C121.631 28.3724 122.087 28.0316 122.599 27.7964C123.069 27.5786 123.581 27.4659 124.099 27.4664C124.686 27.437 125.272 27.5314 125.82 27.7433C126.368 27.9552 126.865 28.2799 127.279 28.6964L127.599 29.0564C127.617 29.1041 127.649 29.1457 127.689 29.1764C128.062 29.7007 128.311 30.3023 128.419 30.9364H122.549L123.159 31.8364L124.229 33.4264L124.399 33.6764H128.199C127.996 34.2808 127.654 34.829 127.199 35.2764C126.784 35.6985 126.285 36.0281 125.733 36.2435C125.182 36.459 124.591 36.5554 123.999 36.5264C123.137 36.5714 122.287 36.3092 121.599 35.7864L121.309 35.5564L120.979 35.7164L119.069 36.6464L118.389 36.9764L118.879 37.5464C118.999 37.6864 119.119 37.7964 119.229 37.9164C119.881 38.5097 120.642 38.9688 121.471 39.2674C122.3 39.5659 123.179 39.6981 124.059 39.6564C125.136 39.6717 126.207 39.4921 127.219 39.1264C128.157 38.7777 129.007 38.2282 129.709 37.5164C130.409 36.7997 130.956 35.9494 131.319 35.0164C131.686 34.0589 131.873 33.0418 131.869 32.0164C131.899 30.9484 131.719 29.885 131.339 28.8864ZM150.299 38.8164L144.579 24.9264L144.439 24.5664H141.169L141.029 24.9264L135.349 38.8164L135.019 39.6164H139.019L139.159 39.2464L142.849 30.1164L146.509 39.2364L146.659 39.6064H150.659L150.299 38.8164Z" fill="#070B14"/>
<path d="M38.41 33.59H24C24.0979 34.6348 24.3023 35.6668 24.61 36.67H33.15L27.59 42.23C28.2399 43.0296 28.9704 43.7601 29.77 44.41L35.33 38.85V47.39C36.3332 47.6977 37.3652 47.9021 38.41 48V33.59ZM55.91 33.59H41.5V48C42.5448 47.9021 43.5768 47.6977 44.58 47.39V36.67H52C51.3941 38.2352 50.4908 39.6682 49.34 40.89V45C52.1654 42.944 54.2437 40.0232 55.26 36.68V36.62C55.32 36.43 55.37 36.23 55.42 36.03C55.4234 35.9767 55.4234 35.9233 55.42 35.87C55.48 35.65 55.52 35.44 55.57 35.23V35.05C55.57 34.87 55.64 34.69 55.67 34.5C55.6657 34.4468 55.6657 34.3932 55.67 34.34C55.67 34.17 55.72 34 55.74 33.83C55.7894 33.7451 55.8463 33.6647 55.91 33.59ZM40 16C35.9899 15.9844 32.1201 17.4752 29.157 20.1772C26.1938 22.8793 24.3534 26.5955 24 30.59H34.9L36.62 27.52H27.83C28.0983 26.7812 28.433 26.0683 28.83 25.39H37.83L39.55 22.31H31.41C33.7691 20.2269 36.8079 19.0773 39.955 19.0773C43.1021 19.0773 46.1409 20.2269 48.5 22.31H40.38L42.1 25.39H51.1C51.4967 26.0685 51.8314 26.7814 52.1 27.52H43.3L45 30.59H55.9C55.5481 26.6127 53.7219 22.9106 50.7799 20.211C47.8379 17.5114 43.9929 16.0094 40 16Z" fill="#1E8AFF"/>
</svg>
